<svg width="185" height="128" viewBox="0 0 185 128" fill="none" xmlns="http://www.w3.org/2000/svg">
<path d="M19.0554 34.2741C40.6297 141.949 45.5266 90.6089 68.6544 55.9565C82.2901 35.5262 102.263 20.8965 135.727 48.0762" stroke="white" stroke-width="2"/>
<path d="M109.335 19.1089C109.335 105.119 32.4226 114.863 32.4226 40.9478" stroke="white" stroke-width="2"/>
<line x1="1.90942" y1="128" x2="1.90942" y2="3.76472" stroke="#DDD5D5" stroke-opacity="0.1" stroke-width="2"/>
<path d="M112.92 91.4963V98.0588H111.244V87.1497H112.863V88.8543H113.005C113.261 88.3003 113.649 87.8552 114.17 87.5191C114.691 87.1782 115.363 87.0077 116.187 87.0077C116.926 87.0077 117.572 87.1592 118.126 87.4622C118.68 87.7605 119.111 88.2151 119.419 88.8259C119.727 89.4319 119.88 90.199 119.88 91.127V98.0588H118.204V91.2407C118.204 90.3836 117.982 89.716 117.537 89.2378C117.092 88.7549 116.481 88.5134 115.704 88.5134C115.169 88.5134 114.691 88.6294 114.27 88.8614C113.853 89.0934 113.524 89.4319 113.282 89.877C113.041 90.3221 112.92 90.8619 112.92 91.4963ZM127.375 98.2861C126.39 98.2861 125.526 98.0517 124.783 97.583C124.044 97.1142 123.466 96.4585 123.05 95.6157C122.638 94.7729 122.432 93.788 122.432 92.6611C122.432 91.5247 122.638 90.5328 123.05 89.6853C123.466 88.8377 124.044 88.1796 124.783 87.7108C125.526 87.2421 126.39 87.0077 127.375 87.0077C128.36 87.0077 129.222 87.2421 129.96 87.7108C130.704 88.1796 131.281 88.8377 131.693 89.6853C132.11 90.5328 132.318 91.5247 132.318 92.6611C132.318 93.788 132.11 94.7729 131.693 95.6157C131.281 96.4585 130.704 97.1142 129.96 97.583C129.222 98.0517 128.36 98.2861 127.375 98.2861ZM127.375 96.7804C128.123 96.7804 128.739 96.5887 129.222 96.2051C129.705 95.8216 130.062 95.3174 130.294 94.6924C130.526 94.0674 130.642 93.3903 130.642 92.6611C130.642 91.9319 130.526 91.2525 130.294 90.6228C130.062 89.993 129.705 89.484 129.222 89.0958C128.739 88.7075 128.123 88.5134 127.375 88.5134C126.627 88.5134 126.011 88.7075 125.528 89.0958C125.046 89.484 124.688 89.993 124.456 90.6228C124.224 91.2525 124.108 91.9319 124.108 92.6611C124.108 93.3903 124.224 94.0674 124.456 94.6924C124.688 95.3174 125.046 95.8216 125.528 96.2051C126.011 96.5887 126.627 96.7804 127.375 96.7804ZM138.996 98.2861C138.087 98.2861 137.285 98.0565 136.589 97.5972C135.892 97.1332 135.348 96.4798 134.955 95.637C134.562 94.7894 134.366 93.788 134.366 92.6327C134.366 91.4869 134.562 90.4925 134.955 89.6497C135.348 88.8069 135.895 88.1559 136.596 87.6966C137.296 87.2373 138.106 87.0077 139.025 87.0077C139.735 87.0077 140.296 87.1261 140.708 87.3628C141.124 87.5948 141.442 87.86 141.66 88.1583C141.882 88.4518 142.055 88.6933 142.178 88.8827H142.32V83.5134H143.996V98.0588H142.377V96.3827H142.178C142.055 96.5816 141.88 96.8325 141.652 97.1355C141.425 97.4338 141.101 97.7014 140.679 97.9381C140.258 98.1701 139.697 98.2861 138.996 98.2861ZM139.223 96.7804C139.896 96.7804 140.464 96.6052 140.928 96.2549C141.392 95.8997 141.745 95.4097 141.986 94.7847C142.228 94.155 142.348 93.4282 142.348 92.6043C142.348 91.7899 142.23 91.0773 141.993 90.4665C141.757 89.851 141.406 89.3728 140.942 89.0318C140.478 88.6862 139.905 88.5134 139.223 88.5134C138.513 88.5134 137.921 88.6957 137.448 89.0603C136.979 89.4201 136.626 89.9102 136.39 90.5304C136.158 91.146 136.042 91.8372 136.042 92.6043C136.042 93.3808 136.16 94.0863 136.397 94.7208C136.638 95.3505 136.993 95.8524 137.462 96.2265C137.936 96.5958 138.523 96.7804 139.223 96.7804ZM151.873 98.2861C150.821 98.2861 149.915 98.0541 149.152 97.5901C148.395 97.1213 147.81 96.4679 147.398 95.6299C146.991 94.7871 146.787 93.8069 146.787 92.6895C146.787 91.5721 146.991 90.5872 147.398 89.735C147.81 88.878 148.383 88.2104 149.117 87.7321C149.856 87.2492 150.717 87.0077 151.702 87.0077C152.27 87.0077 152.831 87.1024 153.385 87.2918C153.939 87.4812 154.444 87.789 154.898 88.2151C155.353 88.6365 155.715 89.1952 155.985 89.8912C156.255 90.5872 156.39 91.4443 156.39 92.4622V93.1725H147.981V91.7236H154.685C154.685 91.1081 154.562 90.5588 154.316 90.0759C154.074 89.5929 153.729 89.2118 153.279 88.9324C152.834 88.6531 152.308 88.5134 151.702 88.5134C151.035 88.5134 150.457 88.6791 149.969 89.0105C149.486 89.3372 149.115 89.7634 148.854 90.289C148.594 90.8145 148.464 91.378 148.464 91.9793V92.9452C148.464 93.7691 148.606 94.4675 148.89 95.0404C149.178 95.6086 149.579 96.0418 150.09 96.3401C150.601 96.6336 151.196 96.7804 151.873 96.7804C152.313 96.7804 152.711 96.7189 153.066 96.5958C153.426 96.4679 153.736 96.2785 153.996 96.0276C154.257 95.7719 154.458 95.4547 154.6 95.0759L156.219 95.5304C156.049 96.0797 155.762 96.5626 155.36 96.9793C154.957 97.3912 154.46 97.7132 153.868 97.9452C153.276 98.1725 152.611 98.2861 151.873 98.2861ZM111.471 122.059V107.513H113.147V112.883H113.29C113.413 112.693 113.583 112.452 113.801 112.158C114.023 111.86 114.341 111.595 114.753 111.363C115.169 111.126 115.733 111.008 116.443 111.008C117.361 111.008 118.171 111.237 118.872 111.697C119.573 112.156 120.12 112.807 120.513 113.65C120.906 114.493 121.102 115.487 121.102 116.633C121.102 117.788 120.906 118.789 120.513 119.637C120.12 120.48 119.575 121.133 118.879 121.597C118.183 122.056 117.38 122.286 116.471 122.286C115.771 122.286 115.209 122.17 114.788 121.938C114.367 121.701 114.042 121.434 113.815 121.136C113.588 120.833 113.413 120.582 113.29 120.383H113.091V122.059H111.471ZM113.119 116.604C113.119 117.428 113.24 118.155 113.481 118.785C113.723 119.41 114.075 119.9 114.54 120.255C115.004 120.605 115.572 120.78 116.244 120.78C116.945 120.78 117.53 120.596 117.998 120.226C118.472 119.852 118.827 119.351 119.064 118.721C119.305 118.086 119.426 117.381 119.426 116.604C119.426 115.837 119.307 115.146 119.071 114.53C118.839 113.91 118.486 113.42 118.013 113.06C117.544 112.696 116.954 112.513 116.244 112.513C115.562 112.513 114.989 112.686 114.525 113.032C114.061 113.373 113.711 113.851 113.474 114.467C113.237 115.077 113.119 115.79 113.119 116.604ZM128.098 122.286C127.113 122.286 126.249 122.052 125.505 121.583C124.767 121.114 124.189 120.458 123.772 119.616C123.361 118.773 123.155 117.788 123.155 116.661C123.155 115.525 123.361 114.533 123.772 113.685C124.189 112.838 124.767 112.18 125.505 111.711C126.249 111.242 127.113 111.008 128.098 111.008C129.083 111.008 129.944 111.242 130.683 111.711C131.426 112.18 132.004 112.838 132.416 113.685C132.833 114.533 133.041 115.525 133.041 116.661C133.041 117.788 132.833 118.773 132.416 119.616C132.004 120.458 131.426 121.114 130.683 121.583C129.944 122.052 129.083 122.286 128.098 122.286ZM128.098 120.78C128.846 120.78 129.461 120.589 129.944 120.205C130.427 119.822 130.785 119.317 131.017 118.692C131.249 118.067 131.365 117.39 131.365 116.661C131.365 115.932 131.249 115.252 131.017 114.623C130.785 113.993 130.427 113.484 129.944 113.096C129.461 112.708 128.846 112.513 128.098 112.513C127.35 112.513 126.734 112.708 126.251 113.096C125.768 113.484 125.411 113.993 125.179 114.623C124.947 115.252 124.831 115.932 124.831 116.661C124.831 117.39 124.947 118.067 125.179 118.692C125.411 119.317 125.768 119.822 126.251 120.205C126.734 120.589 127.35 120.78 128.098 120.78ZM142.475 117.599V111.15H144.151V122.059H142.475V120.212H142.361C142.105 120.766 141.707 121.237 141.168 121.626C140.628 122.009 139.946 122.201 139.122 122.201C138.44 122.201 137.834 122.052 137.304 121.753C136.774 121.45 136.357 120.996 136.054 120.39C135.751 119.779 135.6 119.01 135.6 118.082V111.15H137.276V117.968C137.276 118.763 137.498 119.398 137.943 119.871C138.393 120.345 138.966 120.582 139.662 120.582C140.079 120.582 140.502 120.475 140.933 120.262C141.369 120.049 141.734 119.722 142.027 119.282C142.325 118.842 142.475 118.28 142.475 117.599ZM148.897 115.496V122.059H147.221V111.15H148.84V112.854H148.982C149.238 112.3 149.626 111.855 150.147 111.519C150.668 111.178 151.34 111.008 152.164 111.008C152.902 111.008 153.549 111.159 154.103 111.462C154.657 111.761 155.088 112.215 155.395 112.826C155.703 113.432 155.857 114.199 155.857 115.127V122.059H154.181V115.241C154.181 114.384 153.958 113.716 153.513 113.238C153.068 112.755 152.457 112.513 151.681 112.513C151.146 112.513 150.668 112.629 150.246 112.861C149.83 113.093 149.5 113.432 149.259 113.877C149.017 114.322 148.897 114.862 148.897 115.496ZM163.664 111.15V112.57H158.011V111.15H163.664ZM159.658 108.536H161.335V118.934C161.335 119.407 161.403 119.762 161.541 119.999C161.683 120.231 161.863 120.387 162.08 120.468C162.303 120.544 162.537 120.582 162.783 120.582C162.968 120.582 163.12 120.572 163.238 120.553C163.356 120.529 163.451 120.511 163.522 120.496L163.863 122.002C163.749 122.045 163.591 122.087 163.387 122.13C163.184 122.177 162.926 122.201 162.613 122.201C162.14 122.201 161.676 122.099 161.221 121.895C160.771 121.692 160.397 121.382 160.099 120.965C159.805 120.548 159.658 120.023 159.658 119.388V108.536ZM167.265 126.15C166.981 126.15 166.728 126.126 166.505 126.079C166.283 126.036 166.129 125.993 166.043 125.951L166.47 124.474C166.877 124.578 167.237 124.616 167.549 124.587C167.862 124.559 168.139 124.419 168.38 124.168C168.626 123.922 168.851 123.522 169.055 122.968L169.367 122.116L165.333 111.15H167.151L170.163 119.843H170.276L173.288 111.15H175.106L170.475 123.65C170.267 124.213 170.009 124.68 169.701 125.049C169.393 125.423 169.036 125.7 168.629 125.88C168.226 126.06 167.772 126.15 167.265 126.15Z" fill="white"/>
<path d="M24.429 34.2588C24.429 36.9618 22.1096 39.1529 19.2484 39.1529C16.3872 39.1529 14.0677 36.9618 14.0677 34.2588C14.0677 31.5559 16.3872 29.3647 19.2484 29.3647C22.1096 29.3647 24.429 31.5559 24.429 34.2588Z" fill="#078A83"/>
<path d="M37.9782 39.5294C37.9782 42.2324 35.6587 44.4236 32.7976 44.4236C29.9364 44.4236 27.6169 42.2324 27.6169 39.5294C27.6169 36.8265 29.9364 34.6353 32.7976 34.6353C35.6587 34.6353 37.9782 36.8265 37.9782 39.5294Z" fill="#FF7A00"/>
</svg>
