<svg width="211" height="28" viewBox="0 0 211 28" fill="none" xmlns="http://www.w3.org/2000/svg">
<path d="M0.272003 22.2662V0.382253H4.96522L15.5649 14.5256V0.382253H20.2581V22.2662H15.5649L4.96522 8.12287V22.2662H0.272003Z" fill="white"/>
<path d="M33.2707 22.6485C28.3221 22.6485 24.2674 18.7622 24.2674 14.0159C24.2674 9.26962 28.3221 5.41524 33.2707 5.41524C38.2193 5.41524 42.274 9.26962 42.274 14.0159C42.274 18.7622 38.2193 22.6485 33.2707 22.6485ZM33.2707 18.7304C35.761 18.7304 37.8043 16.5961 37.8043 14.0159C37.8043 11.4357 35.761 9.33333 33.2707 9.33333C30.7804 9.33333 28.7371 11.4357 28.7371 14.0159C28.7371 16.5961 30.7804 18.7304 33.2707 18.7304Z" fill="white"/>
<path d="M58.0859 0H62.7472V22.2662H58.0859V19.9408C56.7769 21.6291 54.8294 22.6485 52.5307 22.6485C48.1248 22.6485 44.9641 19.0808 44.9641 14.0159C44.9641 8.98294 48.1248 5.41524 52.5307 5.41524C54.8294 5.41524 56.7769 6.43459 58.0859 8.12287V0ZM53.8716 18.7304C56.3619 18.7304 58.0859 16.7873 58.0859 14.0159C58.0859 11.2765 56.3619 9.33333 53.8716 9.33333C51.3175 9.33333 49.4976 11.2765 49.4976 14.0159C49.4976 16.7873 51.3175 18.7304 53.8716 18.7304Z" fill="white"/>
<path d="M75.2126 19.0489C76.7131 19.0489 78.4372 18.38 79.4907 17.4243L82.1087 20.1001C80.6401 21.6291 77.7986 22.6485 75.3722 22.6485C70.4555 22.6485 66.5285 19.0489 66.5285 13.9841C66.5285 9.01479 70.2959 5.41524 75.1168 5.41524C80.2889 5.41524 83.4177 9.14221 83.4177 15.2582H70.9663C71.3814 17.4881 72.9458 19.0489 75.2126 19.0489ZM75.1487 9.01479C73.0735 9.01479 71.5091 10.3845 70.9982 12.4869H78.948C78.5649 10.4482 77.2559 9.01479 75.1487 9.01479Z" fill="white"/>
<path d="M96.9748 22.2662V0.382253H108.085C112.012 0.382253 114.758 2.67577 114.758 5.86121C114.758 8.09101 113.609 9.71559 111.661 10.7349C114.215 11.8817 115.716 13.9204 115.716 16.3413C115.716 19.8453 112.715 22.2662 108.5 22.2662H96.9748ZM101.668 9.20592H106.936C108.66 9.20592 109.905 8.18658 109.905 6.78498C109.905 5.41524 108.66 4.3959 106.936 4.3959H101.668V9.20592ZM101.668 18.2526H107.638C109.522 18.2526 110.863 17.1377 110.863 15.5768C110.863 14.0159 109.522 12.901 107.638 12.901H101.668V18.2526Z" fill="white"/>
<path d="M127.604 22.6485C122.655 22.6485 118.601 18.7622 118.601 14.0159C118.601 9.26962 122.655 5.41524 127.604 5.41524C132.553 5.41524 136.607 9.26962 136.607 14.0159C136.607 18.7622 132.553 22.6485 127.604 22.6485ZM127.604 18.7304C130.094 18.7304 132.138 16.5961 132.138 14.0159C132.138 11.4357 130.094 9.33333 127.604 9.33333C125.114 9.33333 123.07 11.4357 123.07 14.0159C123.07 16.5961 125.114 18.7304 127.604 18.7304Z" fill="white"/>
<path d="M150.951 5.7975H155.58V22.2662H150.951V20.2275C149.961 21.6928 148.109 22.6485 145.97 22.6485C142.362 22.6485 139.84 20.0364 139.84 16.2776V5.7975H144.342V15.2901C144.342 17.3288 145.619 18.7304 147.471 18.7304C149.418 18.7304 150.951 17.3288 150.951 15.5449V5.7975Z" fill="white"/>
<path d="M169.747 5.41524C173.322 5.41524 175.845 8.0273 175.845 11.7861V22.2662H171.375V12.7736C171.375 10.7349 170.098 9.33333 168.246 9.33333C166.299 9.33333 164.766 10.7349 164.766 12.5188V22.2662H160.105V5.7975H164.766V7.83618C165.756 6.37088 167.608 5.41524 169.747 5.41524Z" fill="white"/>
<path d="M188.832 18.1889L189.95 21.215C188.992 22.0751 187.491 22.6485 186.182 22.6485C183.245 22.6485 181.202 20.5779 181.202 17.6155V9.55631H178.935V5.7975H181.202V1.27418H185.703V5.7975H189.279V9.55631H185.703V16.8828C185.703 17.9659 186.374 18.7304 187.268 18.7304C187.906 18.7304 188.513 18.5074 188.832 18.1889Z" fill="white"/>
<path d="M197.565 28C196.192 28 194.564 27.5859 193.447 26.9807L194.436 23.7952C195.203 24.2412 196.065 24.5279 196.607 24.5279C197.469 24.5279 198.236 24.1456 198.683 23.3811L199.13 22.4255L192.265 5.7975H197.086L201.428 17.3606L205.515 5.7975H210.272L203.535 23.0944C202.258 26.3117 200.183 28 197.565 28Z" fill="white"/>
</svg>
